<svg xmlns="http://www.w3.org/2000/svg" xmlns:xlink="http://www.w3.org/1999/xlink" viewBox="0 0 804.88 556.41"><defs><style>.cls-1,.cls-8{fill:none;}.cls-2{fill:#e60200;}.cls-3{fill:#f0f0f0;fill-rule:evenodd;}.cls-4{fill:url(#_10_dpi_20_2);}.cls-5,.cls-7,.cls-9{fill:#fff;}.cls-5,.cls-9{stroke:#ee0300;}.cls-5,.cls-8,.cls-9{stroke-linecap:round;stroke-linejoin:round;}.cls-5{stroke-width:3px;}.cls-6{fill:#eb0012;}.cls-8{stroke:#fff;stroke-width:2px;}.cls-9{stroke-width:2.77px;}.cls-10{fill:#e2e2e2;}.cls-11{fill:#ee0300;}.cls-12{fill:#f1b8b6;}</style><pattern id="_10_dpi_20_2" data-name="10 dpi 20% 2" width="28.8" height="28.8" patternUnits="userSpaceOnUse" viewBox="0 0 28.8 28.8"><rect class="cls-1" width="28.8" height="28.8"/><path class="cls-2" d="M28.8,30.24a1.44,1.44,0,1,0-1.44-1.44A1.44,1.44,0,0,0,28.8,30.24Z"/><path class="cls-2" d="M14.4,30.24A1.44,1.44,0,1,0,13,28.8,1.44,1.44,0,0,0,14.4,30.24Z"/><path class="cls-2" d="M28.8,15.84a1.44,1.44,0,1,0-1.44-1.44A1.44,1.44,0,0,0,28.8,15.84Z"/><path class="cls-2" d="M14.4,15.84A1.44,1.44,0,1,0,13,14.4,1.44,1.44,0,0,0,14.4,15.84Z"/><path class="cls-2" d="M7.2,23A1.44,1.44,0,1,0,5.76,21.6,1.44,1.44,0,0,0,7.2,23Z"/><path class="cls-2" d="M21.6,23a1.44,1.44,0,1,0-1.44-1.44A1.44,1.44,0,0,0,21.6,23Z"/><path class="cls-2" d="M7.2,8.64A1.44,1.44,0,1,0,5.76,7.2,1.44,1.44,0,0,0,7.2,8.64Z"/><path class="cls-2" d="M21.6,8.64A1.44,1.44,0,1,0,20.16,7.2,1.44,1.44,0,0,0,21.6,8.64Z"/><path class="cls-2" d="M0,30.24A1.44,1.44,0,0,0,1.44,28.8,1.45,1.45,0,0,0,0,27.36,1.44,1.44,0,0,0-1.44,28.8,1.43,1.43,0,0,0,0,30.24Z"/><path class="cls-2" d="M0,15.84A1.44,1.44,0,0,0,1.44,14.4,1.45,1.45,0,0,0,0,13,1.44,1.44,0,0,0-1.44,14.4,1.43,1.43,0,0,0,0,15.84Z"/><path class="cls-2" d="M28.8,1.44A1.44,1.44,0,0,0,30.24,0,1.45,1.45,0,0,0,28.8-1.44,1.44,1.44,0,0,0,27.36,0,1.43,1.43,0,0,0,28.8,1.44Z"/><path class="cls-2" d="M14.4,1.44A1.44,1.44,0,0,0,15.84,0,1.45,1.45,0,0,0,14.4-1.44,1.44,1.44,0,0,0,13,0,1.43,1.43,0,0,0,14.4,1.44Z"/><path class="cls-2" d="M0,1.44A1.44,1.44,0,0,0,1.44,0,1.45,1.45,0,0,0,0-1.44,1.44,1.44,0,0,0-1.44,0,1.43,1.43,0,0,0,0,1.44Z"/></pattern></defs><g id="Layer_2" data-name="Layer 2"><g id="Layer_1-2" data-name="Layer 1"><path id="Combined-Shape" class="cls-3" d="M269.12,0A269.2,269.2,0,0,1,515.26,159.7a207,207,0,0,1,82.23-16.9c114.54,0,207.39,92.59,207.39,206.8S712,556.41,597.49,556.41a207.25,207.25,0,0,1-161.73-77.33,268.41,268.41,0,0,1-166.64,57.64C120.49,536.72,0,416.57,0,268.36S120.49,0,269.12,0Z"/><rect class="cls-4" x="96.13" y="116.21" width="500.08" height="376.6"/><polygon points="600.42 465.69 121.65 465.69 121.65 387.58 121.65 316.75 121.65 110.39 600.42 110.39 600.42 465.69"/><polygon class="cls-5" points="608.62 455.85 129.85 455.85 129.85 377.75 129.85 306.92 129.85 100.56 608.62 100.56 608.62 455.85"/><path class="cls-6" d="M134.76,100.56h469a4.91,4.91,0,0,1,4.91,4.91v54.44a0,0,0,0,1,0,0H129.85a0,0,0,0,1,0,0V105.47a4.91,4.91,0,0,1,4.91-4.91Z"/><circle class="cls-7" cx="551.92" cy="131.58" r="5.85"/><circle class="cls-7" cx="578.03" cy="131.58" r="5.85"/><line class="cls-8" x1="142.96" y1="116.8" x2="368.01" y2="116.8"/><line class="cls-9" x1="451.4" y1="287.21" x2="507.26" y2="287.21"/><line class="cls-9" x1="490.62" y1="302.85" x2="520.34" y2="302.85"/><line class="cls-9" x1="431.78" y1="302.85" x2="474.58" y2="302.85"/><line class="cls-9" x1="448.78" y1="315.85" x2="481.11" y2="315.85"/><polygon class="cls-7" points="311.34 423.29 206.74 362.89 206.74 242.1 311.35 181.71 415.95 242.1 415.95 362.89 311.34 423.29"/><polygon class="cls-7" points="387.44 258.56 387.44 346.43 311.35 390.37 235.25 346.43 235.25 258.56 311.35 214.63 387.44 258.56"/><polygon class="cls-10" points="236.75 345.57 236.75 259.43 309.84 217.23 309.84 387.77 236.75 345.57"/><path class="cls-7" d="M308.34,219.83V385.17L238.25,344.7V260.3l70.09-40.47m3-5.2-76.09,43.93v87.87l76.09,43.94V214.63Z"/><path class="cls-11" d="M311.34,407.69l-91.09-52.6V249.9l91.1-52.59,91.09,52.59V355.09Zm-76.09-61.26,76.09,43.94,76.1-43.94V258.56l-76.09-43.93-76.1,43.93Z"/><polygon class="cls-7" points="639.96 180.22 744.57 240.62 744.57 361.41 639.96 421.81 535.35 361.41 535.35 240.62 639.96 180.22"/><polygon class="cls-7" points="563.86 344.95 563.86 257.08 639.96 213.15 716.06 257.08 716.06 344.95 639.96 388.88 563.86 344.95"/><polygon class="cls-10" points="641.46 215.74 714.55 257.95 714.55 344.08 641.46 386.29 641.46 215.74"/><path class="cls-7" d="M643,218.34l70.1,40.47v84.41L643,383.69V218.34m-3-5.19V388.88L716.06,345V257.08L640,213.15Z"/><path class="cls-12" d="M640,195.83l91.1,52.59V353.61L640,406.21l-91.1-52.6V248.42Zm76.1,61.25L640,213.15l-76.1,43.93V345L640,388.88,716.06,345Z"/></g></g></svg>